<svg width="0" height="0" class="hidden">
  <symbol xmlns="http://www.w3.org/2000/svg" viewBox="0 0 28 28" id="Find">
    <path clip-rule="evenodd" d="M12.2852 4.05704C7.74092 4.05704 4.05704 7.74092 4.05704 12.2852C4.05704 16.8295 7.74092 20.5134 12.2852 20.5134C16.8295 20.5134 20.5134 16.8295 20.5134 12.2852C20.5134 7.74092 16.8295 4.05704 12.2852 4.05704ZM2 12.2852C2 6.60485 6.60485 2 12.2852 2C17.9656 2 22.5704 6.60485 22.5704 12.2852C22.5704 17.9656 17.9656 22.5704 12.2852 22.5704C6.60485 22.5704 2 17.9656 2 12.2852Z"></path>
    <path d="M19.8786 18.3487L25.6829 24.153C26.1057 24.5758 26.1057 25.2613 25.6829 25.6841C25.2601 26.1069 24.5746 26.1069 24.1518 25.6841L18.3475 19.8798L19.8786 18.3487Z"></path>
  </symbol>

  <symbol version="1.1" id="Like" xmlns="http://www.w3.org/2000/svg" xmlns:xlink="http://www.w3.org/1999/xlink" x="0px" y="0px" xml:space="preserve" viewBox="0 0 51.997 51.997">
    <g>
      <path d="M51.911,16.242C51.152,7.888,45.239,1.827,37.839,1.827c-4.93,0-9.444,2.653-11.984,6.905
		c-2.517-4.307-6.846-6.906-11.697-6.906c-7.399,0-13.313,6.061-14.071,14.415c-0.06,0.369-0.306,2.311,0.442,5.478
		c1.078,4.568,3.568,8.723,7.199,12.013l18.115,16.439l18.426-16.438c3.631-3.291,6.121-7.445,7.199-12.014
		C52.216,18.553,51.97,16.611,51.911,16.242z M49.521,21.261c-0.984,4.172-3.265,7.973-6.59,10.985L25.855,47.481L9.072,32.25
		c-3.331-3.018-5.611-6.818-6.596-10.99c-0.708-2.997-0.417-4.69-0.416-4.701l0.015-0.101C2.725,9.139,7.806,3.826,14.158,3.826
		c4.687,0,8.813,2.88,10.771,7.515l0.921,2.183l0.921-2.183c1.927-4.564,6.271-7.514,11.069-7.514
		c6.351,0,11.433,5.313,12.096,12.727C49.938,16.57,50.229,18.264,49.521,21.261z"></path>
    </g>
  </symbol>

   <symbol version="1.1" id="clouds" xmlns="http://www.w3.org/2000/svg" xmlns:xlink="http://www.w3.org/1999/xlink" x="0px" y="0px" xml:space="preserve" viewBox="0 0 496 496">
    <g>
      <g>
        <path d="M413.968,233.096c-10.832-63.92-65.816-111.512-130.944-112.96C265.88,90.336,234.536,72,200,72
			c-40.936,0-77.168,26.096-90.52,64.288c-20.696-2.144-40.208,7.464-51.624,24.056C25.08,163.424,0,190.6,0,224
			c0,20.104,9.424,38.616,25.04,50.616C9.568,290.488,0,312.136,0,336c0,48.52,39.48,88,88,88h312c52.936,0,96-43.064,96-96
			C496,280.424,460.464,239.928,413.968,233.096z M16,224c0-26.144,20.496-47.192,46.648-47.928l4.472-0.128l2.232-3.872
			c8.648-14.984,25.728-23.24,43.864-18.96l7.56,1.792l2-7.512C132.104,112.424,163.848,88,200,88
			c25.88,0,49.584,12.416,64.496,32.984c-53.496,6.096-98.608,43.224-114.44,95.288C148.008,216.088,145.984,216,144,216
			c-24.032,0-46.56,12.184-59.856,32.08c-17.272,0.752-33.248,6.528-46.552,15.864C24.2,255.096,16,240.24,16,224z M400,408H88
			c-39.704,0-72-32.296-72-72c0-39.704,32.296-72,71.688-72.008l5.536,0.04l2.304-3.992C105.536,242.744,124.12,232,144,232
			c3.352,0,6.856,0.336,10.424,1.008l7.424,1.4l1.824-7.336C176.96,173.448,224.8,136,280,136
			c60.512,0,111.672,45.28,119.008,105.32l0.56,4.592C399.84,249.24,400,252.6,400,256c0,66.168-53.832,120-120,120v16
			c74.992,0,136-61.008,136-136c0-2.12-0.176-4.2-0.272-6.296C452.432,257.088,480,289.776,480,328C480,372.112,444.112,408,400,408
			z"></path>
      </g>
    </g>
  </symbol>

  <symbol version="1.1" id="rain" xmlns="http://www.w3.org/2000/svg" xmlns:xlink="http://www.w3.org/1999/xlink" x="0px" y="0px" xml:space="preserve" viewBox="0 0 496 496">
    <g>
      <g>
        <g>
          <path d="M413.968,113.096C402.968,48.184,346.464,0,280,0c-60.16,0-112.6,39.232-129.944,96.272
				C148.008,96.088,145.984,96,144,96c-24.032,0-46.56,12.184-59.856,32.08C37.4,130.112,0,168.768,0,216c0,48.52,39.48,88,88,88
				h312c52.936,0,96-43.064,96-96C496,160.424,460.464,119.928,413.968,113.096z M400,288H88c-39.704,0-72-32.304-72-72
				s32.296-72,71.688-72.008l5.536,0.04l2.304-3.992C105.536,122.744,124.12,112,144,112c3.352,0,6.856,0.336,10.424,1.008
				l7.424,1.4l1.824-7.336C176.96,53.448,224.8,16,280,16c60.512,0,111.672,45.28,119.008,105.32l0.56,4.592
				C399.84,129.24,400,132.6,400,136c0,66.168-53.832,120-120,120v16c74.992,0,136-61.008,136-136c0-2.12-0.176-4.2-0.272-6.296
				C452.432,137.088,480,169.768,480,208C480,252.112,444.112,288,400,288z"></path>
          <path d="M160,384v-1.352c0-5.808-1.576-11.504-4.56-16.464L128,320.448l-27.44,45.728C97.576,371.152,96,376.84,96,382.648V384
				c0,17.648,14.352,32,32,32S160,401.648,160,384z M144,384c0,8.824-7.176,16-16,16c-8.824,0-16-7.176-16-16v-1.352
				c0-2.904,0.792-5.744,2.28-8.232L128,351.552l13.72,22.872c1.488,2.48,2.28,5.32,2.28,8.224V384z"></path>
          <path d="M240,384v-1.352c0-5.808-1.576-11.504-4.56-16.464L208,320.448l-27.44,45.728c-2.984,4.976-4.56,10.664-4.56,16.472V384
				c0,17.648,14.352,32,32,32S240,401.648,240,384z M224,384c0,8.824-7.176,16-16,16c-8.824,0-16-7.176-16-16v-1.352
				c0-2.904,0.792-5.744,2.28-8.232L208,351.552l13.72,22.872c1.488,2.48,2.28,5.32,2.28,8.224V384z"></path>
          <path d="M320,384v-1.352c0-5.808-1.576-11.504-4.56-16.464L288,320.448l-27.44,45.728c-2.984,4.976-4.56,10.664-4.56,16.472V384
				c0,17.648,14.352,32,32,32S320,401.648,320,384z M304,384c0,8.824-7.176,16-16,16c-8.824,0-16-7.176-16-16v-1.352
				c0-2.904,0.792-5.744,2.28-8.232L288,351.552l13.72,22.872c1.488,2.48,2.28,5.32,2.28,8.224V384z"></path>
          <path d="M368,320.448l-27.44,45.728c-2.984,4.976-4.56,10.664-4.56,16.472V384c0,17.648,14.352,32,32,32s32-14.352,32-32v-1.352
				c0-5.808-1.576-11.504-4.56-16.464L368,320.448z M384,384c0,8.824-7.176,16-16,16c-8.824,0-16-7.176-16-16v-1.352
				c0-2.904,0.792-5.744,2.28-8.232L368,351.552l13.72,22.872c1.488,2.48,2.28,5.32,2.28,8.224V384z"></path>
          <path d="M88,400.448l-27.44,45.728C57.576,451.152,56,456.84,56,462.648V464c0,17.648,14.352,32,32,32s32-14.352,32-32v-1.352
				c0-5.808-1.576-11.504-4.56-16.464L88,400.448z M104,464c0,8.824-7.176,16-16,16s-16-7.176-16-16v-1.352
				c0-2.904,0.792-5.744,2.28-8.232L88,431.552l13.72,22.872c1.488,2.48,2.28,5.32,2.28,8.224V464z"></path>
          <path d="M168,400.448l-27.44,45.728c-2.984,4.976-4.56,10.664-4.56,16.472V464c0,17.648,14.352,32,32,32s32-14.352,32-32v-1.352
				c0-5.808-1.576-11.504-4.56-16.464L168,400.448z M184,464c0,8.824-7.176,16-16,16c-8.824,0-16-7.176-16-16v-1.352
				c0-2.904,0.792-5.744,2.28-8.232L168,431.552l13.72,22.872c1.488,2.48,2.28,5.32,2.28,8.224V464z"></path>
          <path d="M248,400.448l-27.44,45.728c-2.984,4.976-4.56,10.664-4.56,16.472V464c0,17.648,14.352,32,32,32s32-14.352,32-32v-1.352
				c0-5.808-1.576-11.504-4.56-16.464L248,400.448z M264,464c0,8.824-7.176,16-16,16c-8.824,0-16-7.176-16-16v-1.352
				c0-2.904,0.792-5.744,2.28-8.232L248,431.552l13.72,22.872c1.488,2.48,2.28,5.32,2.28,8.224V464z"></path>
          <path d="M328,400.448l-27.44,45.728c-2.984,4.976-4.56,10.664-4.56,16.472V464c0,17.648,14.352,32,32,32s32-14.352,32-32v-1.352
				c0-5.808-1.576-11.504-4.56-16.464L328,400.448z M344,464c0,8.824-7.176,16-16,16c-8.824,0-16-7.176-16-16v-1.352
				c0-2.904,0.792-5.744,2.28-8.232L328,431.552l13.72,22.872c1.488,2.48,2.28,5.32,2.28,8.224V464z"></path>
        </g>
      </g>
    </g>
  </symbol>

  <symbol version="1.1" id="clear" xmlns="http://www.w3.org/2000/svg" xmlns:xlink="http://www.w3.org/1999/xlink" x="0px" y="0px" xml:space="preserve" viewBox="0 0 496 496">
    <g>
      <g>
        <g>
          <rect x="152.994" y="58.921" transform="matrix(0.3827 0.9239 -0.9239 0.3827 168.6176 -118.5145)" width="40.001" height="16"></rect>
          <rect x="46.9" y="164.979" transform="matrix(0.9239 0.3827 -0.3827 0.9239 71.29 -12.4346)" width="40.001" height="16"></rect>
          <rect x="46.947" y="315.048" transform="matrix(0.9239 -0.3827 0.3827 0.9239 -118.531 50.2116)" width="40.001" height="16"></rect>
          <rect x="164.966" y="409.112" transform="matrix(-0.9238 -0.3828 0.3828 -0.9238 168.4872 891.7491)" width="16" height="39.999"></rect>
          <rect x="303.031" y="421.036" transform="matrix(-0.3827 -0.9239 0.9239 -0.3827 50.2758 891.6655)" width="40.001" height="16"></rect>
          <rect x="409.088" y="315.018" transform="matrix(-0.9239 -0.3827 0.3827 -0.9239 701.898 785.6559)" width="40.001" height="16"></rect>
          <rect x="409.054" y="165.011" transform="matrix(-0.9239 0.3827 -0.3827 -0.9239 891.6585 168.6574)" width="40.001" height="16"></rect>
          <rect x="315.001" y="46.895" transform="matrix(0.9238 0.3828 -0.3828 0.9238 50.212 -118.5529)" width="16" height="39.999"></rect>
          <path d="M248,88c-88.224,0-160,71.776-160,160s71.776,160,160,160s160-71.776,160-160S336.224,88,248,88z M248,392
				c-79.4,0-144-64.6-144-144s64.6-144,144-144s144,64.6,144,144S327.4,392,248,392z"></path>
          <rect x="240" width="16" height="72"></rect>
          <rect x="62.097" y="90.096" transform="matrix(0.7071 0.7071 -0.7071 0.7071 98.0963 -40.6334)" width="71.999" height="16"></rect>
          <rect y="240" width="72" height="16"></rect>
          <rect x="90.091" y="361.915" transform="matrix(-0.7071 -0.7071 0.7071 -0.7071 -113.9157 748.643)" width="16" height="71.999"></rect>
          <rect x="240" y="424" width="16" height="72"></rect>
          <rect x="361.881" y="389.915" transform="matrix(-0.7071 -0.7071 0.7071 -0.7071 397.8562 960.6281)" width="71.999" height="16"></rect>
          <rect x="424" y="240" width="72" height="16"></rect>
          <rect x="389.911" y="62.091" transform="matrix(0.7071 0.7071 -0.7071 0.7071 185.9067 -252.6357)" width="16" height="71.999"></rect>
        </g>
      </g>
    </g>
  </symbol>
</svg>