<svg width="0" height="0" class="hidden">
  <symbol version="1.1" id="Cloudy" xmlns="http://www.w3.org/2000/svg" xmlns:xlink="http://www.w3.org/1999/xlink" x="0px" y="0px" xml:space="preserve" viewBox="0 0 453.421 453.421">
    <g>
      <path d="M348.533,187.944c-2.287,0-4.596,0.084-6.926,0.241c-5.621-73.995-67.623-132.488-143.048-132.488
		c-79.095,0-143.45,64.348-143.45,143.454c0,0.47,0.004,0.935,0.018,1.406C21.396,218.757,0,254.172,0,292.832
		c0,57.833,47.046,104.893,104.885,104.893h243.648c57.828,0,104.888-47.055,104.888-104.893
		C453.421,234.997,406.361,187.944,348.533,187.944z M348.533,375.305H104.885c-45.472,0-82.471-37.002-82.471-82.473
		c0-32.46,19.193-62.005,48.889-75.279l7.095-3.171l-0.604-9.688c-0.122-1.839-0.265-3.672-0.265-5.543
		c0-66.74,54.298-121.041,121.038-121.041c66.749,0,121.055,54.296,121.036,121.114c-0.032,0.523-0.065,1.032-0.07,1.546
		l-0.132,13.691l13.444-2.578c5.313-1.021,10.594-1.531,15.701-1.531c45.479,0,82.472,36.995,82.472,82.479
		C431.018,338.303,394.011,375.305,348.533,375.305z"></path>
    </g>
  </symbol>

  <symbol id="Sunny" xmlns="http://www.w3.org/2000/svg" viewBox="0 0 32 32">
    <defs></defs>
    <title>sunny</title>
    <path d="M16,12a4,4,0,1,1-4,4,4.0045,4.0045,0,0,1,4-4m0-2a6,6,0,1,0,6,6,6,6,0,0,0-6-6Z" transform="translate(0 0.0049)"></path>
    <rect x="6.8536" y="5.3745" width="1.9998" height="4.958" transform="translate(-3.253 7.8584) rotate(-45)"></rect>
    <rect x="2" y="15.0049" width="5" height="2"></rect>
    <rect x="5.3745" y="23.1466" width="4.958" height="1.9998" transform="translate(-14.7739 12.6305) rotate(-45)"></rect>
    <rect x="15" y="25.0049" width="2" height="5"></rect>
    <rect x="23.1466" y="21.6675" width="1.9998" height="4.958" transform="translate(-10.0018 24.1514) rotate(-45)"></rect>
    <rect x="25" y="15.0049" width="5" height="2"></rect>
    <rect x="21.6675" y="6.8536" width="4.958" height="1.9998" transform="translate(1.5191 19.3793) rotate(-45)"></rect>
    <rect x="15" y="2.0049" width="2" height="5"></rect>
    <rect id="_Transparent_Rectangle_" width="32" height="32"></rect>
  </symbol>

  <symbol version="1.1" id="Like" xmlns="http://www.w3.org/2000/svg" xmlns:xlink="http://www.w3.org/1999/xlink" x="0px" y="0px" xml:space="preserve" viewBox="0 0 51.997 51.997">
    <g>
      <path d="M51.911,16.242C51.152,7.888,45.239,1.827,37.839,1.827c-4.93,0-9.444,2.653-11.984,6.905
		c-2.517-4.307-6.846-6.906-11.697-6.906c-7.399,0-13.313,6.061-14.071,14.415c-0.06,0.369-0.306,2.311,0.442,5.478
		c1.078,4.568,3.568,8.723,7.199,12.013l18.115,16.439l18.426-16.438c3.631-3.291,6.121-7.445,7.199-12.014
		C52.216,18.553,51.97,16.611,51.911,16.242z M49.521,21.261c-0.984,4.172-3.265,7.973-6.59,10.985L25.855,47.481L9.072,32.25
		c-3.331-3.018-5.611-6.818-6.596-10.99c-0.708-2.997-0.417-4.69-0.416-4.701l0.015-0.101C2.725,9.139,7.806,3.826,14.158,3.826
		c4.687,0,8.813,2.88,10.771,7.515l0.921,2.183l0.921-2.183c1.927-4.564,6.271-7.514,11.069-7.514
		c6.351,0,11.433,5.313,12.096,12.727C49.938,16.57,50.229,18.264,49.521,21.261z"></path>
    </g>
  </symbol>
</svg>